<svg width="12" height="13" viewBox="0 0 12 13" fill="none" xmlns="http://www.w3.org/2000/svg">
<path fill-rule="evenodd" clip-rule="evenodd" d="M9.91667 1.18753C10.2388 1.18753 10.5 1.4487 10.5 1.77086C10.5 2.09303 10.2388 2.35419 9.91667 2.35419C9.5945 2.35419 9.33333 2.09303 9.33333 1.77086C9.33333 1.4487 9.5945 1.18753 9.91667 1.18753ZM8.26624 1.18754C8.50648 0.507846 9.15471 0.020874 9.91667 0.020874C10.8832 0.020874 11.6667 0.804371 11.6667 1.77086C11.6667 2.73736 10.8832 3.52086 9.91667 3.52086C9.15471 3.52086 8.50649 3.03389 8.26625 2.35421H7.29167H7C6.67783 2.35421 6.41667 2.61537 6.41667 2.93754V5.85421H8.26624C8.50648 5.17451 9.15471 4.68754 9.91667 4.68754C10.8832 4.68754 11.6667 5.47104 11.6667 6.43753C11.6667 7.40402 10.8832 8.18752 9.91667 8.18752C9.15471 8.18752 8.50649 7.70056 8.26625 7.02087H6.41667L6.41667 9.93749C6.41667 10.2598 6.67775 10.5208 6.99977 10.5208H7.00306H7.00635H7.00964H7.01293H7.01623H7.01953H7.02283H7.02613H7.02944H7.03275H7.03606H7.03937H7.04268H7.046H7.04932H7.05264H7.05596H7.05928H7.06261H7.06594H7.06927H7.07261H7.07594H7.07928H7.08262H7.08596H7.0893H7.09265H7.096H7.09935H7.1027H7.10606H7.10941H7.11277H7.11613H7.11949H7.12286H7.12622H7.12959H7.13296H7.13633H7.1397H7.14308H7.14646H7.14984H7.15322H7.1566H7.15999H7.16337H7.16676H7.17015H7.17354H7.17694H7.18033H7.18373H7.18713H7.19053H7.19393H7.19734H7.20074H7.20415H7.20756H7.21097H7.21438H7.2178H7.22121H7.22463H7.22805H7.23147H7.23489H7.23832H7.24174H7.24517H7.2486H7.25203H7.25546H7.2589H7.26233H7.26577H7.26921H7.27264H7.27609H7.27953H7.28297H7.28642H7.28986H7.29331H7.29676H7.30021H7.30367H7.30712H7.31057H7.31403H7.31749H7.32095H7.32441H7.32787H7.33133H7.3348H7.33826H7.34173H7.3452H7.34867H7.35214H7.35561H7.35908H7.36256H7.36603H7.36951H7.37299H7.37647H7.37995H7.38343H7.38691H7.39039H7.39388H7.39736H7.40085H7.40434H7.40783H7.41132H7.41481H7.4183H7.42179H7.42529H7.42878H7.43228H7.43578H7.43928H7.44278H7.44628H7.44978H7.45328H7.45678H7.46029H7.46379H7.4673H7.4708H7.47431H7.47782H7.48133H7.48484H7.48835H7.49186H7.49537H7.49888H7.5024H7.50591H7.50943H7.51294H7.51646H7.51998H7.5235H7.52702H7.53054H7.53406H7.53758H7.5411H7.54462H7.54815H7.55167H7.55519H7.55872H7.56224H7.56577H7.5693H7.57282H7.57635H7.57988H7.58341H7.58694H7.59047H7.594H7.59753H7.60106H7.60459H7.60813H7.61166H7.61519H7.61873H7.62226H7.62579H7.62933H7.63286H7.6364H7.63994H7.64347H7.64701H7.65055H7.65408H7.65762H7.66116H7.6647H7.66824H7.67178H7.67531H7.67885H7.68239H7.68593H7.68947H7.69301H7.69655H7.7001H7.70364H7.70718H7.71072H7.71426H7.7178H7.72134H7.72488H7.72843H7.73197H7.73551H7.73905H7.74259H7.74614H7.74968H7.75322H7.75676H7.7603H7.76385H7.76739H7.77093H7.77447H7.77801H7.78156H7.7851H7.78864H7.79218H7.79572H7.79926H7.80281H7.80635H7.80989H7.81343H7.81697H7.82051H7.82405H7.82759H7.83113H7.83467H7.83821H7.84175H7.84529H7.84883H7.85237H7.8559H7.85944H7.86298H7.86652H7.87005H7.87359H7.87713H7.88066H7.8842H7.88773H7.89127H7.8948H7.89834H7.90187H7.9054H7.90894H7.91247H7.916H7.91953H7.92306H7.92659H7.93012H7.93365H7.93718H7.94071H7.94423H7.94776H7.95129H7.95481H7.95834H7.96186H7.96539H7.96891H7.97243H7.97596H7.97948H7.983H7.98652H7.99004H7.99356H7.99707H8.00059H8.00411H8.00762H8.01114H8.01465H8.01817H8.02168H8.02519H8.0287H8.03221H8.03572H8.03923H8.04274H8.04625H8.04975H8.05326H8.05676H8.06026H8.06377H8.06727H8.07077H8.07427H8.07777H8.08127H8.08476H8.08826H8.09175H8.09525H8.09874H8.10223H8.10572H8.10921H8.1127H8.11619H8.11967H8.12316H8.12664H8.13013H8.13361H8.13709H8.14057H8.14405H8.14752H8.151H8.15448H8.15795H8.16142H8.16489H8.16836H8.17183H8.1753H8.17877H8.18223H8.18569H8.18916H8.19262H8.19608H8.19954H8.20299H8.20645H8.2099H8.21336H8.21681H8.22026H8.22371H8.22715H8.2306H8.23405H8.23749H8.24093H8.24437H8.24781H8.25125H8.25468H8.25812H8.26155H8.26498H8.26626C8.50651 9.84116 9.15473 9.35421 9.91667 9.35421C10.8832 9.35421 11.6667 10.1377 11.6667 11.1042C11.6667 12.0707 10.8832 12.8542 9.91667 12.8542C9.15469 12.8542 8.50646 12.3672 8.26623 11.6875H8.26498H8.26155H8.25812H8.25468H8.25125H8.24781H8.24437H8.24093H8.23749H8.23405H8.2306H8.22715H8.22371H8.22026H8.21681H8.21336H8.2099H8.20645H8.20299H8.19954H8.19608H8.19262H8.18916H8.18569H8.18223H8.17877H8.1753H8.17183H8.16836H8.16489H8.16142H8.15795H8.15448H8.151H8.14752H8.14405H8.14057H8.13709H8.13361H8.13013H8.12664H8.12316H8.11967H8.11619H8.1127H8.10921H8.10572H8.10223H8.09874H8.09525H8.09175H8.08826H8.08476H8.08127H8.07777H8.07427H8.07077H8.06727H8.06377H8.06026H8.05676H8.05326H8.04975H8.04625H8.04274H8.03923H8.03572H8.03221H8.0287H8.02519H8.02168H8.01817H8.01465H8.01114H8.00762H8.00411H8.00059H7.99707H7.99356H7.99004H7.98652H7.983H7.97948H7.97596H7.97243H7.96891H7.96539H7.96186H7.95834H7.95481H7.95129H7.94776H7.94423H7.94071H7.93718H7.93365H7.93012H7.92659H7.92306H7.91953H7.916H7.91247H7.90894H7.9054H7.90187H7.89834H7.8948H7.89127H7.88773H7.8842H7.88066H7.87713H7.87359H7.87005H7.86652H7.86298H7.85944H7.8559H7.85237H7.84883H7.84529H7.84175H7.83821H7.83467H7.83113H7.82759H7.82405H7.82051H7.81697H7.81343H7.80989H7.80635H7.80281H7.79926H7.79572H7.79218H7.78864H7.7851H7.78156H7.77801H7.77447H7.77093H7.76739H7.76385H7.7603H7.75676H7.75322H7.74968H7.74614H7.74259H7.73905H7.73551H7.73197H7.72843H7.72488H7.72134H7.7178H7.71426H7.71072H7.70718H7.70364H7.7001H7.69655H7.69301H7.68947H7.68593H7.68239H7.67885H7.67531H7.67178H7.66824H7.6647H7.66116H7.65762H7.65408H7.65055H7.64701H7.64347H7.63994H7.6364H7.63286H7.62933H7.62579H7.62226H7.61873H7.61519H7.61166H7.60813H7.60459H7.60106H7.59753H7.594H7.59047H7.58694H7.58341H7.57988H7.57635H7.57282H7.5693H7.56577H7.56224H7.55872H7.55519H7.55167H7.54815H7.54462H7.5411H7.53758H7.53406H7.53054H7.52702H7.5235H7.51998H7.51646H7.51294H7.50943H7.50591H7.5024H7.49888H7.49537H7.49186H7.48835H7.48484H7.48133H7.47782H7.47431H7.4708H7.4673H7.46379H7.46029H7.45678H7.45328H7.44978H7.44628H7.44278H7.43928H7.43578H7.43228H7.42878H7.42529H7.42179H7.4183H7.41481H7.41132H7.40783H7.40434H7.40085H7.39736H7.39388H7.39039H7.38691H7.38343H7.37995H7.37647H7.37299H7.36951H7.36603H7.36256H7.35908H7.35561H7.35214H7.34867H7.3452H7.34173H7.33826H7.3348H7.33133H7.32787H7.32441H7.32095H7.31749H7.31403H7.31057H7.30712H7.30367H7.30021H7.29676H7.29331H7.28986H7.28642H7.28297H7.27953H7.27609H7.27264H7.26921H7.26577H7.26233H7.2589H7.25546H7.25203H7.2486H7.24517H7.24174H7.23832H7.23489H7.23147H7.22805H7.22463H7.22121H7.2178H7.21438H7.21097H7.20756H7.20415H7.20074H7.19734H7.19393H7.19053H7.18713H7.18373H7.18033H7.17694H7.17354H7.17015H7.16676H7.16337H7.15999H7.1566H7.15322H7.14984H7.14646H7.14308H7.1397H7.13633H7.13296H7.12959H7.12622H7.12286H7.11949H7.11613H7.11277H7.10941H7.10606H7.1027H7.09935H7.096H7.09265H7.0893H7.08596H7.08262H7.07928H7.07594H7.07261H7.06927H7.06594H7.06261H7.05928H7.05596H7.05264H7.04932H7.046H7.04268H7.03937H7.03606H7.03275H7.02944H7.02613H7.02283H7.01953H7.01623H7.01293H7.00964H7.00635H7.00306H6.99977C6.03313 11.6875 5.25 10.9038 5.25 9.93749L5.25 7.02087H3.40042C3.16018 7.70056 2.51195 8.18752 1.75 8.18752C0.783507 8.18752 0 7.40402 0 6.43753C0 5.47104 0.783507 4.68754 1.75 4.68754C2.51196 4.68754 3.16019 5.17451 3.40042 5.85421H5.25V2.93754C5.25 1.97104 6.0335 1.18754 7 1.18754H7.29167L8.26624 1.18754ZM9.91667 5.8542C10.2388 5.8542 10.5 6.11537 10.5 6.43753C10.5 6.7597 10.2388 7.02086 9.91667 7.02086C9.5945 7.02086 9.33333 6.7597 9.33333 6.43753C9.33333 6.11537 9.5945 5.8542 9.91667 5.8542ZM2.33333 6.43753C2.33333 6.11537 2.07216 5.8542 1.75 5.8542C1.42784 5.8542 1.16667 6.11537 1.16667 6.43753C1.16667 6.7597 1.42784 7.02086 1.75 7.02086C2.07216 7.02086 2.33333 6.7597 2.33333 6.43753ZM10.5 11.1042C10.5 10.782 10.2388 10.5209 9.91667 10.5209C9.5945 10.5209 9.33333 10.782 9.33333 11.1042C9.33333 11.4264 9.5945 11.6875 9.91667 11.6875C10.2388 11.6875 10.5 11.4264 10.5 11.1042Z" fill="#40C057"/>
</svg>
